<?xml version="1.0" encoding="UTF-8"?>
<!DOCTYPE svg PUBLIC "-//W3C//DTD SVG 1.1//EN" "http://www.w3.org/Graphics/SVG/1.1/DTD/svg11.dtd">
<svg xmlns="http://www.w3.org/2000/svg" version="1.1" width="100px" height="100px" style="shape-rendering:geometricPrecision; text-rendering:geometricPrecision; image-rendering:optimizeQuality; fill-rule:evenodd; clip-rule:evenodd" xmlns:xlink="http://www.w3.org/1999/xlink">
<g><path style="opacity:0.922" fill="#fefffe" d="M 41.5,5.5 C 66.3657,3.67409 83.199,14.3408 92,37.5C 97.4946,63.0065 88.6612,81.5065 65.5,93C 63.8333,93.6667 62.1667,93.6667 60.5,93C 59.6871,86.5809 59.1871,80.0809 59,73.5C 58.5348,72.0692 57.7014,70.9025 56.5,70C 72.6698,67.8573 79.1698,58.6906 76,42.5C 74.9532,40.2379 73.7865,38.0712 72.5,36C 73.5615,32.1848 73.5615,28.3514 72.5,24.5C 67.9407,25.1967 63.774,26.8634 60,29.5C 53,26.8333 46,26.8333 39,29.5C 35.226,26.8634 31.0593,25.1967 26.5,24.5C 25.3081,28.3385 25.3081,32.1718 26.5,36C 22.6735,42.2855 21.5068,49.1189 23,56.5C 26.2307,64.8825 32.3973,69.5492 41.5,70.5C 39.1878,78.0849 34.5211,79.9182 27.5,76C 25.4458,71.5808 22.1125,69.2475 17.5,69C 19.0905,70.0458 20.5905,71.2125 22,72.5C 24.4752,81.186 29.9752,84.5194 38.5,82.5C 39.657,85.7844 39.8236,89.1177 39,92.5C 37.2739,93.5762 35.4406,93.7429 33.5,93C 9.12965,80.5893 0.629653,61.0893 8,34.5C 14.1412,18.8482 25.3078,9.18156 41.5,5.5 Z"/></g>
</svg>
