<?xml version="1.0" encoding="UTF-8"?>
<!DOCTYPE svg PUBLIC "-//W3C//DTD SVG 1.1//EN" "http://www.w3.org/Graphics/SVG/1.1/DTD/svg11.dtd">
<svg xmlns="http://www.w3.org/2000/svg" version="1.1" width="100px" height="100px" style="shape-rendering:geometricPrecision; text-rendering:geometricPrecision; image-rendering:optimizeQuality; fill-rule:evenodd; clip-rule:evenodd" xmlns:xlink="http://www.w3.org/1999/xlink">
<g><path style="opacity:0.962" fill="#fefffe" d="M 99.5,51.5 C 99.5,52.1667 99.5,52.8333 99.5,53.5C 95.5,53.5 91.5,53.5 87.5,53.5C 87.5,66.8333 87.5,80.1667 87.5,93.5C 77.8333,93.5 68.1667,93.5 58.5,93.5C 58.5,83.1667 58.5,72.8333 58.5,62.5C 52.5,62.5 46.5,62.5 40.5,62.5C 40.5,72.8333 40.5,83.1667 40.5,93.5C 30.8333,93.5 21.1667,93.5 11.5,93.5C 11.5,80.1667 11.5,66.8333 11.5,53.5C 7.5,53.5 3.5,53.5 -0.5,53.5C -0.5,52.8333 -0.5,52.1667 -0.5,51.5C 15.6627,36.1715 31.996,21.0048 48.5,6C 54.4062,8.87058 59.5729,13.0372 64,18.5C 64.4983,15.1832 64.665,11.8499 64.5,8.5C 70.1667,8.5 75.8333,8.5 81.5,8.5C 81.3336,17.1731 81.5002,25.8397 82,34.5C 87.7019,40.3696 93.5353,46.0362 99.5,51.5 Z"/></g>
</svg>
