<?xml version="1.0" encoding="UTF-8"?>
<!DOCTYPE svg PUBLIC "-//W3C//DTD SVG 1.1//EN" "http://www.w3.org/Graphics/SVG/1.1/DTD/svg11.dtd">
<svg xmlns="http://www.w3.org/2000/svg" version="1.1" width="100px" height="100px" style="shape-rendering:geometricPrecision; text-rendering:geometricPrecision; image-rendering:optimizeQuality; fill-rule:evenodd; clip-rule:evenodd" xmlns:xlink="http://www.w3.org/1999/xlink">
<g><path style="opacity:0.96" fill="#fefffe" d="M 7.5,14.5 C 35.8775,14.1751 64.2109,14.5085 92.5,15.5C 93.8333,38.1667 93.8333,60.8333 92.5,83.5C 63.8333,84.8333 35.1667,84.8333 6.5,83.5C 6.16667,72.1667 5.83333,60.8333 5.5,49.5C 5.52099,37.6087 6.18766,25.942 7.5,14.5 Z M 20.5,27.5 C 30.3164,34.5816 39.983,41.9149 49.5,49.5C 58.9097,42.0457 68.4097,34.7123 78,27.5C 79.1667,28.6667 80.3333,29.8333 81.5,31C 71.0134,39.409 60.3467,47.5757 49.5,55.5C 38.9757,47.1417 28.309,38.9751 17.5,31C 18.7101,29.9609 19.7101,28.7942 20.5,27.5 Z"/></g>
</svg>
