<?xml version="1.0" encoding="UTF-8"?>
<!DOCTYPE svg PUBLIC "-//W3C//DTD SVG 1.1//EN" "http://www.w3.org/Graphics/SVG/1.1/DTD/svg11.dtd">
<svg xmlns="http://www.w3.org/2000/svg" version="1.1" width="100px" height="100px" style="shape-rendering:geometricPrecision; text-rendering:geometricPrecision; image-rendering:optimizeQuality; fill-rule:evenodd; clip-rule:evenodd" xmlns:xlink="http://www.w3.org/1999/xlink">
<g><path style="opacity:0.902" fill="#fefffe" d="M 24.5,11.5 C 41.1667,11.5 57.8333,11.5 74.5,11.5C 74.5,13.8333 74.5,16.1667 74.5,18.5C 57.8333,18.5 41.1667,18.5 24.5,18.5C 24.5,16.1667 24.5,13.8333 24.5,11.5 Z"/></g>
<g><path style="opacity:0.777" fill="#fefffe" d="M 17.5,20.5 C 38.8333,20.5 60.1667,20.5 81.5,20.5C 81.5,23.1667 81.5,25.8333 81.5,28.5C 60.1667,28.5 38.8333,28.5 17.5,28.5C 17.5,25.8333 17.5,23.1667 17.5,20.5 Z"/></g>
<g><path style="opacity:0.978" fill="#fefffe" d="M 8.5,30.5 C 35.8333,30.5 63.1667,30.5 90.5,30.5C 90.5,49.5 90.5,68.5 90.5,87.5C 63.1667,87.5 35.8333,87.5 8.5,87.5C 8.5,68.5 8.5,49.5 8.5,30.5 Z"/></g>
</svg>
